<?xml version="1.0" standalone="no"?>
<!DOCTYPE svg PUBLIC "-//W3C//DTD SVG 20010904//EN"
 "http://www.w3.org/TR/2001/REC-SVG-20010904/DTD/svg10.dtd">
<svg version="1.0" xmlns="http://www.w3.org/2000/svg"
 width="1008.000000pt" height="1008.000000pt" viewBox="0 0 1008.000000 1008.000000"
 preserveAspectRatio="xMidYMid meet">
<metadata>
Created by potrace 1.11, written by Peter Selinger 2001-2013
</metadata>
<g transform="translate(0.000000,1008.000000) scale(0.100000,-0.100000)"
fill="#000000" stroke="none">
<path d="M4739 8635 c-2 -2 -44 -6 -94 -9 -49 -4 -105 -8 -124 -11 -19 -2 -59
-7 -90 -10 -31 -3 -65 -7 -76 -9 -11 -2 -45 -7 -75 -11 -30 -3 -71 -11 -90
-15 -19 -5 -53 -11 -75 -14 -22 -3 -71 -13 -110 -21 -38 -9 -81 -18 -95 -21
-14 -3 -52 -12 -85 -21 -33 -8 -67 -17 -75 -18 -115 -27 -375 -112 -545 -178
-315 -121 -669 -306 -960 -500 -90 -60 -349 -250 -373 -274 -7 -6 -34 -29 -60
-50 -26 -21 -52 -42 -58 -48 -6 -5 -48 -44 -94 -85 -105 -94 -286 -276 -365
-366 -33 -37 -67 -75 -75 -84 -8 -9 -32 -37 -53 -63 -21 -25 -44 -52 -50 -59
-7 -7 -55 -69 -106 -138 -381 -509 -653 -1060 -830 -1680 -16 -58 -32 -116
-34 -130 -3 -14 -10 -43 -16 -65 -10 -38 -45 -209 -56 -278 -6 -32 -15 -89
-20 -117 -2 -9 -6 -43 -10 -75 -4 -33 -9 -68 -11 -77 -1 -9 -6 -52 -9 -95 -4
-43 -9 -91 -13 -108 -3 -16 -7 -600 -9 -1297 l-4 -1268 360 0 361 0 0 1083 c1
1183 4 1402 25 1527 2 14 7 52 10 85 3 33 8 67 10 75 2 8 6 35 9 60 3 25 8 54
10 65 2 11 11 58 20 105 19 99 19 99 46 210 12 47 23 92 25 100 6 27 65 213
85 270 466 1326 1539 2342 2880 2729 147 42 289 76 401 96 144 26 205 35 269
41 41 3 77 8 80 9 3 2 57 7 120 11 208 15 689 8 785 -11 11 -2 44 -7 74 -10
29 -3 85 -10 125 -16 39 -6 81 -12 93 -14 12 -2 34 -6 50 -9 15 -4 39 -9 53
-11 14 -3 36 -7 50 -10 14 -4 36 -8 50 -11 14 -3 84 -20 156 -39 393 -104 804
-279 1139 -485 76 -47 307 -201 315 -210 3 -3 20 -17 39 -30 57 -40 220 -176
320 -268 611 -560 1046 -1279 1255 -2073 19 -74 38 -146 41 -161 3 -16 7 -38
10 -50 3 -13 7 -34 10 -48 2 -14 7 -38 11 -53 3 -16 7 -38 9 -50 2 -12 8 -56
14 -97 29 -194 42 -334 46 -506 2 -71 4 -618 4 -1216 l1 -1088 360 0 360 0 -1
1208 c-1 664 -5 1252 -10 1307 -16 206 -23 263 -50 430 -34 213 -50 291 -100
485 -108 423 -293 874 -512 1250 -11 19 -25 44 -31 55 -6 11 -19 31 -27 45 -9
14 -38 59 -64 100 -65 103 -92 142 -152 224 -29 39 -61 82 -70 95 -33 44 -138
176 -168 210 -199 230 -392 424 -565 571 -36 30 -67 58 -70 61 -19 24 -310
238 -430 317 -80 52 -157 103 -172 113 -15 11 -30 19 -33 19 -3 0 -22 11 -43
24 -74 49 -477 256 -497 256 -2 0 -28 11 -57 24 -184 83 -477 183 -719 245
-192 50 -270 66 -484 100 -122 20 -163 25 -270 37 -33 3 -76 8 -95 11 -44 5
-716 13 -721 8z"/>
<path d="M2879 5753 c-1 -10 -1 -4284 0 -4300 1 -10 152 -13 721 -13 l720 0 0
360 0 360 -360 0 -360 0 0 1440 0 1440 360 0 360 0 0 360 0 360 -720 0 c-396
0 -720 -3 -721 -7z"/>
<path d="M5759 5745 c0 -8 -1 -166 -1 -350 0 -184 1 -339 1 -345 1 -6 128 -10
361 -10 l360 0 0 -1440 0 -1440 -360 0 c-336 0 -360 -1 -361 -17 -1 -23 -1
-686 0 -695 1 -5 325 -8 721 -8 l720 0 0 2160 0 2160 -720 0 c-633 0 -720 -2
-721 -15z"/>
</g>
</svg>
