<?xml version="1.0" standalone="no"?>
<!DOCTYPE svg PUBLIC "-//W3C//DTD SVG 20010904//EN"
 "http://www.w3.org/TR/2001/REC-SVG-20010904/DTD/svg10.dtd">
<svg version="1.0" xmlns="http://www.w3.org/2000/svg"
 width="512.000000pt" height="512.000000pt" viewBox="0 0 512.000000 512.000000"
 preserveAspectRatio="xMidYMid meet">
<metadata>
Created by potrace 1.11, written by Peter Selinger 2001-2013
</metadata>
<g transform="translate(0.000000,512.000000) scale(0.100000,-0.100000)"
fill="#000000" stroke="none">
<path d="M2280 4895 c-204 -25 -400 -75 -600 -155 -487 -194 -899 -558 -1174
-1037 -129 -224 -238 -556 -278 -843 -16 -121 -16 -477 0 -595 63 -443 235
-846 503 -1180 82 -103 252 -272 354 -354 323 -260 730 -437 1141 -497 147
-22 494 -25 634 -5 476 65 885 251 1244 564 108 94 124 111 257 263 267 306
459 726 525 1149 22 141 29 435 15 580 -60 593 -334 1134 -775 1527 -366 327
-810 527 -1294 583 -151 18 -406 18 -552 0z m1138 -364 c20 -11 125 -109 233
-218 214 -215 244 -259 275 -390 19 -79 14 -183 -11 -255 -9 -26 -209 -354
-445 -730 l-428 -683 26 -27 c14 -16 30 -28 35 -28 5 0 25 14 44 30 38 34 86
40 131 16 15 -8 274 -262 576 -565 l549 -550 -73 -86 c-121 -143 -393 -385
-432 -385 -7 0 -259 246 -560 547 -574 576 -569 570 -553 642 3 16 17 39 31
51 13 13 24 28 24 34 0 7 -39 50 -86 96 -125 123 -149 189 -101 281 12 24 226
369 475 766 355 567 452 728 452 754 0 28 -16 49 -122 156 -86 86 -127 122
-138 117 -48 -20 -89 -25 -128 -15 -110 30 -174 160 -126 254 23 44 121 145
173 178 55 35 123 39 179 10z m-723 -150 c49 -23 629 -602 644 -644 14 -36 14
-118 1 -154 -16 -42 -1825 -1850 -1875 -1874 -49 -23 -113 -24 -163 -4 -45 19
-604 572 -632 625 -27 52 -33 101 -20 151 10 40 93 126 928 963 631 631 929
924 957 937 51 24 109 24 160 0z"/>
</g>
</svg>
